<?xml version="1.0" encoding="UTF-8" standalone="no"?>
<!DOCTYPE svg PUBLIC "-//W3C//DTD SVG 1.1//EN"
"http://www.w3.org/Graphics/SVG/1.1/DTD/svg11.dtd">
<svg viewBox="0 0 909 1286" version="1.1" xmlns="http://www.w3.org/2000/svg" xmlns:xlink="http://www.w3.org/1999/xlink">
<defs>
<clipPath id="c0_1"><path d="M43.5,1250.6L43.5,34.4l821.4,0l0,1216.2Z" /></clipPath>
<style type="text/css"><![CDATA[
.g1_1{
fill: #DDDDDD;
}
.g2_1{
fill: none;
stroke: #222222;
stroke-width: 1.168326;
stroke-linecap: square;
stroke-linejoin: miter;
}
.g3_1{
fill: #222222;
stroke: #222222;
stroke-width: 1.168326;
stroke-linecap: square;
stroke-linejoin: miter;
}
.g4_1{
fill: #FFFFFF;
}
]]></style>
</defs>
<path d="M43.5,308.9l821.4,0l0,1.2l-821.4,0l0,-1.2Z" class="g1_1" />
<path d="M43.5,443.3l821.4,0l0,1.2l-821.4,0l0,-1.2Z" class="g1_1" />
<path d="M43.5,1069.5l821.4,0l0,1.2l-821.4,0l0,-1.2Z" class="g1_1" />
<path d="M43.5,1245.9l821.4,0l0,1.2l-821.4,0l0,-1.2Z" class="g1_1" />
<g clip-path="url(#c0_1)">
<path d="M556.4,168.1l309.6,0" class="g2_1" />
</g>
<path fill-rule="evenodd" d="M77.4,535.6c0,1.3,-1,2.3,-2.3,2.3c-1.3,0,-2.4,-1,-2.4,-2.3c0,-1.3,1.1,-2.3,2.4,-2.3c1.3,0,2.3,1,2.3,2.3Z" class="g3_1" />
<path fill-rule="evenodd" d="M77.4,556.6c0,1.3,-1,2.4,-2.3,2.4c-1.3,0,-2.4,-1.1,-2.4,-2.4c0,-1.3,1.1,-2.3,2.4,-2.3c1.3,0,2.3,1,2.3,2.3Z" class="g3_1" />
<path fill-rule="evenodd" d="M77.4,577.6c0,1.3,-1,2.4,-2.3,2.4c-1.3,0,-2.4,-1.1,-2.4,-2.4c0,-1.2,1.1,-2.3,2.4,-2.3c1.3,0,2.3,1.1,2.3,2.3Z" class="g3_1" />
<path fill-rule="evenodd" d="M77.4,598.7c0,1.3,-1,2.3,-2.3,2.3c-1.3,0,-2.4,-1,-2.4,-2.3c0,-1.3,1.1,-2.4,2.4,-2.4c1.3,0,2.3,1.1,2.3,2.4Z" class="g3_1" />
<path fill-rule="evenodd" d="M77.4,661.8c0,1.3,-1,2.3,-2.3,2.3c-1.3,0,-2.4,-1,-2.4,-2.3c0,-1.3,1.1,-2.4,2.4,-2.4c1.3,0,2.3,1.1,2.3,2.4Z" class="g3_1" />
<path fill-rule="evenodd" d="M77.4,703.8c0,1.3,-1,2.4,-2.3,2.4c-1.3,0,-2.4,-1.1,-2.4,-2.4c0,-1.3,1.1,-2.3,2.4,-2.3c1.3,0,2.3,1,2.3,2.3Z" class="g3_1" />
<path fill-rule="evenodd" d="M77.4,724.9c0,1.2,-1,2.3,-2.3,2.3c-1.3,0,-2.4,-1.1,-2.4,-2.3c0,-1.3,1.1,-2.4,2.4,-2.4c1.3,0,2.3,1.1,2.3,2.4Z" class="g3_1" />
<path fill-rule="evenodd" d="M77.4,745.9c0,1.3,-1,2.3,-2.3,2.3c-1.3,0,-2.4,-1,-2.4,-2.3c0,-1.3,1.1,-2.4,2.4,-2.4c1.3,0,2.3,1.1,2.3,2.4Z" class="g3_1" />
<path fill-rule="evenodd" d="M77.4,766.9c0,1.3,-1,2.4,-2.3,2.4c-1.3,0,-2.4,-1.1,-2.4,-2.4c0,-1.3,1.1,-2.3,2.4,-2.3c1.3,0,2.3,1,2.3,2.3Z" class="g3_1" />
<path fill-rule="evenodd" d="M77.4,787.9c0,1.3,-1,2.4,-2.3,2.4c-1.3,0,-2.4,-1.1,-2.4,-2.4c0,-1.2,1.1,-2.3,2.4,-2.3c1.3,0,2.3,1.1,2.3,2.3Z" class="g3_1" />
<path fill-rule="evenodd" d="M77.4,964.4c0,1.3,-1,2.3,-2.3,2.3c-1.3,0,-2.4,-1,-2.4,-2.3c0,-1.3,1.1,-2.4,2.4,-2.4c1.3,0,2.3,1.1,2.3,2.4Z" class="g3_1" />
<path fill-rule="evenodd" d="M77.4,985.4c0,1.3,-1,2.3,-2.3,2.3c-1.3,0,-2.4,-1,-2.4,-2.3c0,-1.3,1.1,-2.3,2.4,-2.3c1.3,0,2.3,1,2.3,2.3Z" class="g3_1" />
<path d="M90.3,991.8l413.6,0" class="g2_1" />
<path d="M43.5,1265.4l821.4,0l0,21.1l-821.4,0l0,-21.1Z" class="g4_1" />
</svg>